<?xml version="1.0" encoding="utf-8"?>
<!-- Generator: Adobe Illustrator 16.0.0, SVG Export Plug-In . SVG Version: 6.00 Build 0)  -->
<!DOCTYPE svg PUBLIC "-//W3C//DTD SVG 1.1//EN" "http://www.w3.org/Graphics/SVG/1.1/DTD/svg11.dtd">
<svg version="1.1" id="Layer_1" xmlns="http://www.w3.org/2000/svg" xmlns:xlink="http://www.w3.org/1999/xlink" x="0px" y="0px"
	 width="800px" height="800px" viewBox="0 0 800 800" enable-background="new 0 0 800 800" xml:space="preserve">
<g>
	<rect x="-2.5" y="-2.5" fill="#041642" width="805" height="805"/>
	<g>
		<polygon fill="#D51939" points="584.405,255.989 233.706,255.989 211.283,306.447 326.317,306.447 336.02,325.852 
			404.905,325.852 393.26,306.447 550.443,306.447 		"/>
		<polygon fill="#D51939" points="377.739,399.107 442.745,399.107 525.767,549.5 512.179,585.883 477.246,585.883 		"/>
		<polygon fill="#D51939" points="602.73,337.009 287.988,337.009 233.558,463.63 291.429,463.63 401.76,463.63 419.353,463.63 
			396.427,419.481 310.905,419.481 326.316,384.555 557.718,384.555 564.116,370.245 563.628,370.245 		"/>
		<polygon fill="#D51939" points="217.49,501.005 197.27,548.043 464.056,547.533 439.597,499.988 		"/>
	</g>
</g>
</svg>
