<svg width="215" height="32" viewBox="0 0 215 32" fill="none" xmlns="http://www.w3.org/2000/svg">
<path d="M37.2366 0H3.50348L1.34668 4.8944H12.4116L13.3448 6.77685H19.9709L18.8507 4.8944H33.97L37.2366 0Z" fill="#D51939"/>
<path d="M17.3584 13.8826H23.6112L31.5968 28.4707L30.2899 32H26.9298L17.3584 13.8826Z" fill="#D51939"/>
<path d="M39.0003 7.85889H8.72582L3.49023 20.1414H9.05678H19.6694H21.3615L19.1563 15.859H10.9302L12.4124 12.471H34.6707L35.2861 11.083H35.2392L39.0003 7.85889Z" fill="#D51939"/>
<path d="M1.94495 23.7668L0 28.3296L25.6617 28.2801L23.309 23.6682L1.94495 23.7668Z" fill="#D51939"/>
<path d="M54.0766 16.7483V6.58133H49V4.01794H61.6934V6.58174H56.6338V16.7487H54.0766V16.7483Z" fill="#041642"/>
<path d="M66.1875 16.7483V4.0354H76.3249C76.7951 4.0354 77.2211 4.15044 77.6033 4.38052C77.9847 4.61019 78.2932 4.91954 78.5282 5.30816C78.7637 5.69758 78.8817 6.12197 78.8817 6.58172V9.94144C78.8817 10.4008 78.7637 10.8227 78.5282 11.2052C78.2932 11.5886 77.9847 11.8947 77.6033 12.1252C77.2211 12.3548 76.7951 12.4699 76.3249 12.4699L68.7272 12.4878V16.7487H66.1875V16.7483ZM68.8322 9.90567H76.2017C76.2374 9.90567 76.2633 9.89673 76.2808 9.87925C76.2986 9.86136 76.3067 9.84103 76.3067 9.81746V6.68781C76.3067 6.65245 76.2982 6.62643 76.2808 6.60854C76.2633 6.59065 76.2374 6.58213 76.2017 6.58213H68.8322C68.7969 6.58213 68.7706 6.59065 68.7536 6.60854C68.7357 6.62643 68.7272 6.65245 68.7272 6.68781V9.81746C68.7272 9.84144 68.7357 9.86136 68.7536 9.87925C68.7706 9.89673 68.7969 9.90567 68.8322 9.90567ZM76.1665 16.7483L72.4112 12.2573H75.7433L78.846 15.9524V16.7483H76.1665Z" fill="#041642"/>
<path d="M83.9428 6.56385C83.9428 6.09272 84.0575 5.66549 84.2869 5.28256C84.5159 4.89923 84.8215 4.59273 85.2041 4.36265C85.5855 4.13298 86.0115 4.01794 86.4817 4.01794H94.0802C94.55 4.01794 94.9764 4.13257 95.3586 4.36265C95.74 4.59233 96.0489 4.89883 96.2839 5.28256C96.519 5.66549 96.6366 6.09272 96.6366 6.56385V16.7487H94.0628V12.5581H86.4813V16.7487H83.9424V6.56385H83.9428ZM94.0628 10.0118V6.68743C94.0628 6.65206 94.0539 6.62605 94.0361 6.60817C94.0186 6.59028 93.9923 6.58174 93.9566 6.58174H86.5875C86.5522 6.58174 86.5259 6.59028 86.5085 6.60817C86.4906 6.62605 86.4817 6.65206 86.4817 6.68743V10.0118H94.0628Z" fill="#041642"/>
<path d="M101.467 16.7483V4.01794H103.988V16.7483H101.467Z" fill="#041642"/>
<path d="M108.765 16.7483V4.01794H111.462L118.884 12.8939V4.01794H121.458V16.7483H118.761L111.303 7.83701V16.7483H108.765Z" fill="#041642"/>
<path d="M129.091 16.7483C128.633 16.7483 128.209 16.6333 127.822 16.4032C127.434 16.1731 127.128 15.867 126.905 15.4837C126.681 15.1008 126.57 14.6735 126.57 14.202V13.1235H129.109V14.0784C129.109 14.1138 129.118 14.1406 129.135 14.1577C129.153 14.1756 129.174 14.1841 129.197 14.1841H136.584C136.608 14.1841 136.631 14.1756 136.655 14.1577C136.678 14.1406 136.69 14.1138 136.69 14.0784V11.7622C136.69 11.739 136.678 11.7187 136.655 11.7008C136.631 11.6829 136.608 11.6744 136.584 11.6744H129.091C128.633 11.6744 128.209 11.5593 127.822 11.3293C127.434 11.0992 127.128 10.7902 126.905 10.4008C126.681 10.0122 126.57 9.58781 126.57 9.12806V6.56385C126.57 6.09272 126.681 5.66549 126.905 5.28256C127.128 4.89923 127.434 4.59273 127.822 4.36265C128.209 4.13257 128.633 4.01794 129.091 4.01794H136.725C137.184 4.01794 137.604 4.13257 137.986 4.36265C138.367 4.59233 138.676 4.89883 138.911 5.28256C139.146 5.66549 139.263 6.09272 139.263 6.56385V7.64229H136.69V6.68743C136.69 6.65206 136.677 6.62605 136.654 6.60817C136.63 6.59028 136.607 6.58174 136.583 6.58174H129.197C129.173 6.58174 129.153 6.59028 129.135 6.60817C129.117 6.62605 129.108 6.65206 129.108 6.68743V9.00367C129.108 9.02766 129.117 9.04798 129.135 9.06586C129.153 9.08294 129.173 9.09147 129.197 9.09147H136.724C137.183 9.09147 137.603 9.20651 137.985 9.43659C138.366 9.66626 138.675 9.97562 138.91 10.365C139.145 10.7537 139.262 11.178 139.262 11.6378V14.202C139.262 14.6735 139.145 15.1008 138.91 15.4837C138.675 15.8666 138.366 16.1731 137.985 16.4032C137.603 16.6329 137.183 16.7483 136.724 16.7483H129.091Z" fill="#041642"/>
<path d="M144.378 16.7483V4.01794H146.934V9.09188H149.667L153.898 4.01794H156.613V4.83135L151.959 10.3833L156.613 15.9345V16.7483H153.898L149.667 11.674H146.934V16.7483H144.378Z" fill="#041642"/>
<path d="M161.23 16.7483V4.01794H163.752V16.7483H161.23Z" fill="#041642"/>
<path d="M168.546 16.7482V4H171.085V14.1845H181.24V16.7487H168.546V16.7482Z" fill="#041642"/>
<path d="M185.452 16.7482V4H187.991V14.1845H198.146V16.7487H185.452V16.7482Z" fill="#041642"/>
<path d="M204.828 16.7482C204.37 16.7482 203.946 16.6331 203.559 16.4031C203.171 16.1734 202.865 15.8669 202.641 15.4836C202.418 15.1002 202.307 14.6734 202.307 14.2019V13.1234H204.846V14.0783C204.846 14.1137 204.854 14.1405 204.872 14.1576C204.89 14.1754 204.91 14.184 204.934 14.184H212.32C212.344 14.184 212.367 14.1754 212.391 14.1576C212.414 14.1405 212.427 14.1137 212.427 14.0783V11.7621C212.427 11.7389 212.414 11.7186 212.391 11.7007C212.367 11.6828 212.344 11.6742 212.32 11.6742H204.828C204.37 11.6742 203.946 11.5592 203.559 11.3291C203.171 11.0995 202.865 10.7901 202.641 10.4007C202.418 10.0121 202.307 9.58769 202.307 9.12794V6.56373C202.307 6.0926 202.418 5.66536 202.641 5.28244C202.865 4.89911 203.171 4.59261 203.559 4.36253C203.946 4.13286 204.37 4.01782 204.828 4.01782H212.462C212.92 4.01782 213.34 4.13245 213.722 4.36253C214.104 4.59261 214.412 4.8987 214.647 5.28244C214.882 5.66536 215 6.0926 215 6.56373V7.64217H212.426V6.6873C212.426 6.65194 212.414 6.62593 212.391 6.60804C212.367 6.59016 212.344 6.58162 212.32 6.58162H204.933C204.909 6.58162 204.889 6.59016 204.872 6.60804C204.854 6.62593 204.845 6.65194 204.845 6.6873V9.00355C204.845 9.02754 204.854 9.04785 204.872 9.06574C204.889 9.08281 204.909 9.09135 204.933 9.09135H212.461C212.919 9.09135 213.339 9.20638 213.721 9.43646C214.103 9.66654 214.411 9.97549 214.647 10.3649C214.882 10.7535 214.999 11.1779 214.999 11.6377V14.2019C214.999 14.6734 214.882 15.1006 214.647 15.4836C214.411 15.8665 214.103 16.173 213.721 16.4031C213.339 16.6331 212.919 16.7482 212.461 16.7482H204.828Z" fill="#041642"/>
<path d="M52.7721 26.6294V27.6123H52V24.1359C52.5541 24.1359 53.0842 24.1359 53.6338 24.1359C54.5207 24.1359 54.9609 24.7119 54.9609 25.3822C54.9609 26.077 54.515 26.6192 53.6338 26.629L52.7721 26.6294ZM52.7721 25.9188H53.6338C54.0059 25.9188 54.1887 25.6749 54.1887 25.3973C54.1887 25.1189 54.0003 24.8713 53.6338 24.8713H52.7721V25.9188Z" fill="#51555E"/>
<path d="M60.0357 27.6123H59.1788L58.2932 26.4697H57.7335V27.6123H56.9609V24.1359C57.5251 24.1359 58.0456 24.1359 58.6049 24.1359C59.4415 24.1359 59.8873 24.6969 59.8873 25.3087C59.8821 25.7599 59.7483 26.1623 59.0852 26.4005L60.0357 27.5525V27.6123ZM57.7335 24.8006V25.814H58.615C58.9713 25.814 59.1249 25.5461 59.1249 25.3282C59.1197 25.0892 58.9661 24.8006 58.6049 24.8006H57.7335Z" fill="#51555E"/>
<path d="M64.6755 27.6123H62.0356C62.0356 26.455 62.0356 25.2928 62.0356 24.1359H64.6058V24.8461H62.7932V25.5164H64.5016V26.1973H62.7932V26.8969H64.6755V27.6123Z" fill="#51555E"/>
<path d="M69.8587 27.1013C69.5024 27.4533 69.042 27.6123 68.5268 27.6123C67.2047 27.6123 66.6798 26.7582 66.6753 25.8094C66.6701 24.9111 67.2549 23.9676 68.5268 23.9676C69.0019 23.9676 69.4428 24.1513 69.7991 24.5042L69.3144 24.9859C69.1064 24.7826 68.8041 24.6976 68.5272 24.6976C67.7401 24.6976 67.4333 25.3086 67.4377 25.8147C67.4426 26.3216 67.7154 26.8968 68.5272 26.8968C68.8045 26.8968 69.1717 26.7737 69.3792 26.5647L69.8587 27.1013Z" fill="#51555E"/>
<path d="M71.8589 27.6123V24.1359H72.627V27.6123H71.8589Z" fill="#51555E"/>
<path d="M76.9446 24.8618C76.7516 24.6582 76.4148 24.5683 76.1424 24.5683C75.8008 24.5683 75.5235 24.7123 75.5235 24.9505C75.5235 25.2683 75.8255 25.3277 76.2713 25.3679C76.9551 25.4273 77.6032 25.6899 77.6032 26.4947C77.6032 27.2691 76.8899 27.6065 76.1424 27.6122C75.5434 27.6171 74.9192 27.3837 74.627 26.8959L75.0882 26.4151C75.3553 26.7577 75.7959 26.9061 76.1473 26.9061C76.5587 26.9061 76.8408 26.7431 76.8408 26.4943C76.8457 26.2013 76.613 26.0667 76.1424 26.0277C75.4096 25.9578 74.7559 25.7748 74.766 24.9545C74.7708 24.2647 75.4246 23.8972 76.138 23.8972C76.6726 23.8972 77.0739 24.0159 77.4301 24.4326L76.9446 24.8618Z" fill="#51555E"/>
<path d="M79.603 27.6123V24.1359H80.3703V27.6123H79.603Z" fill="#51555E"/>
<path d="M84.2424 27.6123C83.1334 27.6123 82.3706 26.9217 82.3706 25.7891C82.3706 24.6575 83.1334 23.9668 84.2424 23.9668C85.3509 23.9668 86.1137 24.6575 86.1137 25.7891C86.1137 26.9213 85.3509 27.6123 84.2424 27.6123ZM84.2424 24.6623C83.5837 24.6623 83.1277 25.1583 83.1277 25.7888C83.1277 26.4392 83.5837 26.9111 84.2424 26.9111C84.9152 26.9111 85.3562 26.4343 85.3562 25.7888C85.3562 25.1534 84.9152 24.6623 84.2424 24.6623Z" fill="#51555E"/>
<path d="M90.5258 26.3961L90.4764 25.3034V24.1359H91.2534V27.6123H90.5903L88.8673 25.3875L88.8964 26.5298V27.6123H88.1138V24.1359H88.7781L90.5258 26.3961Z" fill="#51555E"/>
<path d="M94.3085 24.8261H93.2534V24.1363C94.2639 24.1363 95.1155 24.1363 96.1308 24.1363V24.8261H95.0753V27.6123H94.3081V24.8261H94.3085Z" fill="#51555E"/>
<path d="M101.206 27.6123H100.349L99.4623 26.4697H98.9025V27.6123H98.1304V24.1359C98.6954 24.1359 99.2146 24.1359 99.7743 24.1359C100.611 24.1359 101.056 24.6969 101.056 25.3087C101.052 25.7599 100.918 26.1623 100.254 26.4005L101.206 27.5525V27.6123ZM98.9029 24.8006V25.814H99.7845C100.141 25.814 100.294 25.5461 100.294 25.3282C100.289 25.0892 100.136 24.8006 99.7748 24.8006H98.9029Z" fill="#51555E"/>
<path d="M106.068 27.016H104.291L104.038 27.6123H103.206L104.761 24.1359H105.603L107.157 27.6123H106.32L106.068 27.016ZM105.181 24.9205L104.582 26.3306H105.776L105.181 24.9205Z" fill="#51555E"/>
<path d="M109.157 27.6123V24.1359H109.925V27.6123H109.157Z" fill="#51555E"/>
<path d="M114.337 26.3961L114.287 25.3034V24.1359H115.065V27.6123H114.401L112.678 25.3875L112.707 26.5298V27.6123H111.925V24.1359H112.589L114.337 26.3961Z" fill="#51555E"/>
<path d="M117.065 27.6123V24.1359H117.833V27.6123H117.065Z" fill="#51555E"/>
<path d="M122.245 26.3961L122.195 25.3034V24.1359H122.973V27.6123H122.309L120.586 25.3875L120.615 26.5298V27.6123H119.833V24.1359H120.497L122.245 26.3961Z" fill="#51555E"/>
<path d="M127.632 24.9513C127.419 24.7473 127.097 24.6432 126.82 24.6432C126.162 24.6432 125.731 25.0204 125.731 25.7798C125.731 26.2769 126.003 26.8972 126.82 26.8972C127.063 26.8972 127.291 26.8574 127.557 26.6546V26.0985H126.731V25.4521H128.226V26.9672C127.93 27.3944 127.454 27.6123 126.815 27.6123C125.478 27.6123 124.973 26.6838 124.973 25.7798C124.973 24.8021 125.547 23.933 126.82 23.933C127.291 23.933 127.716 24.0619 128.112 24.4696L127.632 24.9513Z" fill="#51555E"/>
<path d="M130.8 27.6123H130.418L130.493 27.0956C130.335 27.0704 130.226 26.9716 130.226 26.8029C130.226 26.2908 131.022 26.3107 131.022 26.7932C131.022 27.0456 130.894 27.3143 130.8 27.6123Z" fill="#51555E"/>
<path d="M133.795 26.6294V27.6123H133.022V24.1359C133.577 24.1359 134.107 24.1359 134.657 24.1359C135.543 24.1359 135.984 24.7119 135.984 25.3822C135.984 26.077 135.538 26.6192 134.657 26.629L133.795 26.6294ZM133.795 25.9188H134.657C135.028 25.9188 135.212 25.6749 135.212 25.3973C135.212 25.1189 135.022 24.8713 134.657 24.8713H133.795V25.9188Z" fill="#51555E"/>
<path d="M140.625 27.6123H137.984C137.984 26.455 137.984 25.2928 137.984 24.1359H140.555V24.8461H138.742V25.5164H140.451V26.1973H138.742V26.8969H140.625V27.6123Z" fill="#51555E"/>
<path d="M145.488 27.016H143.71L143.457 27.6123H142.625L144.18 24.1359H145.021L146.577 27.6123H145.739L145.488 27.016ZM144.601 24.9205L144.002 26.3306H145.195L144.601 24.9205Z" fill="#51555E"/>
<path d="M151.439 24.1562L150.033 25.8245L151.562 27.5684V27.6123H150.633L149.35 26.1274V27.6123H148.577V24.1359H149.35V25.5709L150.503 24.1359H151.439V24.1562Z" fill="#51555E"/>
<path d="M154.335 26.6294V27.6123H153.562V24.1359C154.116 24.1359 154.647 24.1359 155.197 24.1359C156.083 24.1359 156.524 24.7119 156.524 25.3822C156.524 26.077 156.077 26.6192 155.197 26.629L154.335 26.6294ZM154.335 25.9188H155.197C155.568 25.9188 155.751 25.6749 155.751 25.3973C155.751 25.1189 155.562 24.8713 155.197 24.8713H154.335V25.9188Z" fill="#51555E"/>
<path d="M161.164 27.6123H158.524C158.524 26.455 158.524 25.2928 158.524 24.1359H161.095V24.8461H159.281V25.5164H160.99V26.1973H159.281V26.8969H161.164V27.6123Z" fill="#51555E"/>
<path d="M166.238 27.6123H165.381L164.495 26.4697H163.934V27.6123H163.164V24.1359C163.728 24.1359 164.248 24.1359 164.808 24.1359C165.644 24.1359 166.089 24.6969 166.089 25.3087C166.084 25.7599 165.951 26.1623 165.287 26.4005L166.238 27.5525V27.6123ZM163.935 24.8006V25.814H164.816C165.174 25.814 165.327 25.5461 165.327 25.3282C165.322 25.0892 165.169 24.8006 164.808 24.8006H163.935Z" fill="#51555E"/>
<path d="M168.238 27.6123V24.1412H170.763V24.8513H169.01V25.6753H170.654V26.366H169.01V27.6119L168.238 27.6123Z" fill="#51555E"/>
<path d="M174.635 27.6123C173.526 27.6123 172.763 26.9217 172.763 25.7891C172.763 24.6575 173.526 23.9668 174.635 23.9668C175.744 23.9668 176.506 24.6575 176.506 25.7891C176.506 26.9213 175.744 27.6123 174.635 27.6123ZM174.635 24.6623C173.976 24.6623 173.521 25.1583 173.521 25.7888C173.521 26.4392 173.976 26.9111 174.635 26.9111C175.308 26.9111 175.749 26.4343 175.749 25.7888C175.749 25.1534 175.308 24.6623 174.635 24.6623Z" fill="#51555E"/>
<path d="M181.582 27.6123H180.725L179.839 26.4697H179.279V27.6123H178.506V24.1359C179.071 24.1359 179.591 24.1359 180.151 24.1359C180.988 24.1359 181.433 24.6969 181.433 25.3087C181.427 25.7599 181.295 26.1623 180.631 26.4005L181.582 27.5525L181.582 27.6123ZM179.279 24.8006V25.814H180.161C180.517 25.814 180.67 25.5461 180.67 25.3282C180.665 25.0892 180.512 24.8006 180.151 24.8006H179.279Z" fill="#51555E"/>
<path d="M186.598 25.1936L185.528 26.5448H185.389L184.354 25.1831V27.6123H183.582V24.1359C183.875 24.1359 184.176 24.1359 184.469 24.1359L185.479 25.4721L186.494 24.1359H187.37V27.6123H186.598V25.1936Z" fill="#51555E"/>
<path d="M192.232 27.016H190.454L190.202 27.6123H189.37L190.924 24.1359H191.767L193.321 27.6123H192.484L192.232 27.016ZM191.346 24.9205L190.747 26.3306H191.94L191.346 24.9205Z" fill="#51555E"/>
<path d="M197.733 26.3961L197.683 25.3034V24.1359H198.461V27.6123H197.797L196.074 25.3875L196.104 26.5298V27.6123H195.321V24.1359H195.985L197.733 26.3961Z" fill="#51555E"/>
<path d="M203.645 27.1013C203.288 27.4533 202.828 27.6123 202.312 27.6123C200.991 27.6123 200.465 26.7582 200.461 25.8094C200.456 24.9111 201.041 23.9676 202.312 23.9676C202.788 23.9676 203.228 24.1513 203.585 24.5042L203.1 24.9859C202.892 24.7826 202.59 24.6976 202.313 24.6976C201.526 24.6976 201.219 25.3086 201.223 25.8147C201.229 26.3216 201.5 26.8968 202.313 26.8968C202.591 26.8968 202.957 26.7737 203.165 26.5647L203.645 27.1013Z" fill="#51555E"/>
<path d="M208.285 27.6123H205.645C205.645 26.455 205.645 25.2928 205.645 24.1359H208.215V24.8461H206.402V25.5164H208.111V26.1973H206.402V26.8969H208.285V27.6123Z" fill="#51555E"/>
<path d="M211.096 27.2099C211.096 27.7464 210.285 27.7464 210.285 27.2099C210.285 26.6737 211.096 26.6737 211.096 27.2099Z" fill="#51555E"/>
</svg>
